<svg xmlns="http://www.w3.org/2000/svg" width="512" height="512" viewBox="0 0 512 512">
  <g transform="translate(-704 -284)">
    <g transform="translate(704 284)" fill="#141414">
      <path d="M 452 511.5 L 60 511.5 C 51.96731185913086 511.5 44.17518615722656 509.9268798828125 36.84006118774414 506.8243713378906 C 33.3145637512207 505.333251953125 29.91418838500977 503.487548828125 26.73331260681152 501.338623046875 C 23.5826244354248 499.2099914550781 20.61974906921387 496.7654418945312 17.92712593078613 494.0728759765625 C 15.23456287384033 491.3802490234375 12.78999996185303 488.4173889160156 10.66137504577637 485.2666931152344 C 8.51243782043457 482.0858154296875 6.666749954223633 478.6854248046875 5.175624847412109 475.1599426269531 C 2.073124885559082 467.8247985839844 0.5 460.0326843261719 0.5 452 L 0.5 60 C 0.5 51.96731185913086 2.073124885559082 44.17518615722656 5.175624847412109 36.84006118774414 C 6.666749954223633 33.3145637512207 8.51243782043457 29.91418838500977 10.66137504577637 26.73331260681152 C 12.78999996185303 23.5826244354248 15.23456287384033 20.61974906921387 17.92712593078613 17.92712593078613 C 20.61974906921387 15.23456287384033 23.5826244354248 12.78999996185303 26.73331260681152 10.66137504577637 C 29.91418838500977 8.51243782043457 33.3145637512207 6.666749954223633 36.84006118774414 5.175624847412109 C 44.17518615722656 2.073124885559082 51.96731185913086 0.5 60 0.5 L 452 0.5 C 460.0326843261719 0.5 467.8247985839844 2.073124885559082 475.1599426269531 5.175624847412109 C 478.6854248046875 6.666749954223633 482.0858154296875 8.51243782043457 485.2666931152344 10.66137504577637 C 488.4173889160156 12.78999996185303 491.3802490234375 15.23456287384033 494.0728759765625 17.92712593078613 C 496.7654418945312 20.61974906921387 499.2099914550781 23.5826244354248 501.338623046875 26.73331260681152 C 503.487548828125 29.91418838500977 505.333251953125 33.3145637512207 506.8243713378906 36.84006118774414 C 509.9268798828125 44.17518615722656 511.5 51.96731185913086 511.5 60 L 511.5 452 C 511.5 460.0326843261719 509.9268798828125 467.8247985839844 506.8243713378906 475.1599426269531 C 505.333251953125 478.6854248046875 503.487548828125 482.0858154296875 501.338623046875 485.2666931152344 C 499.2099914550781 488.4173889160156 496.7654418945312 491.3802490234375 494.0728759765625 494.0728759765625 C 491.3802490234375 496.7654418945312 488.4173889160156 499.2099914550781 485.2666931152344 501.338623046875 C 482.0858154296875 503.487548828125 478.6854248046875 505.333251953125 475.1599426269531 506.8243713378906 C 467.8247985839844 509.9268798828125 460.0326843261719 511.5 452 511.5 Z" stroke="none"/>
      <path d="M 60 1 C 52.03460693359375 1 44.30801391601562 2.559814453125 37.03488159179688 5.636138916015625 C 33.5390625 7.114654541015625 30.16732788085938 8.944854736328125 27.01327514648438 11.07565307617188 C 23.88885498046875 13.18646240234375 20.9508056640625 15.610595703125 18.28073120117188 18.28073120117188 C 15.610595703125 20.9508056640625 13.18646240234375 23.88885498046875 11.07565307617188 27.01327514648438 C 8.944854736328125 30.16732788085938 7.114654541015625 33.5390625 5.636138916015625 37.03488159179688 C 2.559814453125 44.30801391601562 1 52.03460693359375 1 60 L 1 452 C 1 459.9653930664062 2.559814453125 467.6920166015625 5.636138916015625 474.9651489257812 C 7.114654541015625 478.4609375 8.944854736328125 481.8326721191406 11.07565307617188 484.9867248535156 C 13.18646240234375 488.1111450195312 15.610595703125 491.0491943359375 18.28073120117188 493.7192687988281 C 20.9508056640625 496.389404296875 23.88885498046875 498.8135375976562 27.01327514648438 500.9243469238281 C 30.16732788085938 503.0551452636719 33.5390625 504.8853454589844 37.03488159179688 506.3638610839844 C 44.30801391601562 509.440185546875 52.03460693359375 511 60 511 L 452 511 C 459.9653930664062 511 467.6920166015625 509.440185546875 474.9651489257812 506.3638610839844 C 478.4609375 504.8853454589844 481.8326721191406 503.0551452636719 484.9867248535156 500.9243469238281 C 488.1111450195312 498.8135375976562 491.0491943359375 496.389404296875 493.7192687988281 493.7192687988281 C 496.389404296875 491.0491943359375 498.8135375976562 488.1111450195312 500.9243469238281 484.9867248535156 C 503.0551452636719 481.8326721191406 504.8853454589844 478.4609375 506.3638610839844 474.9651489257812 C 509.440185546875 467.6920166015625 511 459.9653930664062 511 452 L 511 60 C 511 52.03460693359375 509.440185546875 44.30801391601562 506.3638610839844 37.03488159179688 C 504.8853454589844 33.5390625 503.0551452636719 30.16732788085938 500.9243469238281 27.01327514648438 C 498.8135375976562 23.88885498046875 496.389404296875 20.9508056640625 493.7192687988281 18.28073120117188 C 491.0491943359375 15.610595703125 488.1111450195312 13.18646240234375 484.9867248535156 11.07565307617188 C 481.8326721191406 8.944854736328125 478.4609375 7.114654541015625 474.9651489257812 5.636138916015625 C 467.6920166015625 2.559814453125 459.9653930664062 1 452 1 L 60 1 M 60 0 L 452 0 C 485.1370544433594 0 512 26.86294555664062 512 60 L 512 452 C 512 485.1370544433594 485.1370544433594 512 452 512 L 60 512 C 26.86294555664062 512 0 485.1370544433594 0 452 L 0 60 C 0 26.86294555664062 26.86294555664062 0 60 0 Z" stroke="none" fill="#707070"/>
    </g>
    <path d="M239.6-85.2H67.2L18,0H0L148-256.8,121.6-280h65.2L349.6-.4h-62ZM74.8-98.8H232.4L154-236Z" transform="translate(785.5 677.5)" fill="#fff" stroke="#fff" stroke-width="1"/>
  </g>
</svg>
